<?xml version="1.0" encoding="UTF-8" standalone="no"?><!DOCTYPE svg PUBLIC "-//W3C//DTD SVG 1.1//EN" "http://www.w3.org/Graphics/SVG/1.1/DTD/svg11.dtd"><svg width="100%" height="100%" viewBox="0 0 75 75" version="1.1" xmlns="http://www.w3.org/2000/svg" xmlns:xlink="http://www.w3.org/1999/xlink" xml:space="preserve" xmlns:serif="http://www.serif.com/" style="fill-rule:evenodd;clip-rule:evenodd;stroke-linecap:round;stroke-linejoin:round;stroke-miterlimit:1.5;"><rect x="-0" y="0" width="75" height="75" style="fill:none;"/><path d="M36.986,5.248c17.939,-0 32.502,14.936 32.502,33.333c0,18.397 -14.563,33.334 -32.502,33.334c-17.938,-0 -32.502,-14.937 -32.502,-33.334c0,-18.397 14.564,-33.333 32.502,-33.333Zm0,11.111c11.959,0 21.668,9.958 21.668,22.222c0,12.265 -9.709,22.223 -21.668,22.223c-11.959,-0 -21.668,-9.958 -21.668,-22.223c0,-12.264 9.709,-22.222 21.668,-22.222Z" style="stroke:#000;stroke-width:4.17px;"/><path d="M34.516,41.29c0.906,-0.93 2.15,-1.455 3.449,-1.455c1.298,0 2.542,0.525 3.448,1.455c5.996,6.148 18.347,18.816 25.136,25.778c0.801,0.822 1.032,2.044 0.586,3.101c-0.446,1.058 -1.482,1.746 -2.63,1.746c-0.002,-0 -0.004,-0 -0.006,-0c-4.498,-0 -8.805,-1.816 -11.945,-5.037c-5.248,-5.382 -13.432,-13.775 -18.04,-18.501c-1.922,-1.971 -1.922,-5.115 0,-7.086c0.001,-0 0.001,-0.001 0.002,-0.001Z" style="stroke:#000;stroke-width:4.17px;"/></svg>